<?xml version="1.0" encoding="UTF-8" standalone="no"?>
<svg
   xmlns:dc="http://purl.org/dc/elements/1.1/"
   xmlns:cc="http://creativecommons.org/ns#"
   xmlns:rdf="http://www.w3.org/1999/02/22-rdf-syntax-ns#"
   xmlns:svg="http://www.w3.org/2000/svg"
   xmlns="http://www.w3.org/2000/svg"
   xmlns:sodipodi="http://sodipodi.sourceforge.net/DTD/sodipodi-0.dtd"
   xmlns:inkscape="http://www.inkscape.org/namespaces/inkscape"
   version="1.1"
   x="0px"
   y="0px"
   width="248"
   height="107"
   overflow="inherit"
   viewBox="0 0 248 107"
   preserveAspectRatio="xMidYMid"
   font-size="0"
   id="Layer_1"
   xml:space="preserve"
   xml="http://www.w3.org/XML/1998/namespace"
   enable-background="new 0 0 300 300"
   sodipodi:docname="vector-2.svg"
   style="font-size:0px;overflow:inherit"
   inkscape:version="0.92.3 (d244b95, 2018-08-02)"><metadata
   id="metadata91"><rdf:RDF><cc:Work
       rdf:about=""><dc:format>image/svg+xml</dc:format><dc:type
         rdf:resource="http://purl.org/dc/dcmitype/StillImage" /><dc:title></dc:title></cc:Work></rdf:RDF></metadata><defs
   id="defs89" /><sodipodi:namedview
   pagecolor="#ffffff"
   bordercolor="#666666"
   borderopacity="1"
   objecttolerance="10"
   gridtolerance="10"
   guidetolerance="10"
   inkscape:pageopacity="0"
   inkscape:pageshadow="2"
   inkscape:window-width="1920"
   inkscape:window-height="1025"
   id="namedview87"
   showgrid="false"
   inkscape:zoom="2.7966667"
   inkscape:cx="77.592373"
   inkscape:cy="45.1795"
   inkscape:window-x="0"
   inkscape:window-y="27"
   inkscape:window-maximized="1"
   inkscape:current-layer="Layer_1" />
  <g
   id="myid_9_"
   xml:space="preserve"
   transform="translate(-25.532778,-91.09297)">
    <g
   id="icon_9_"
   xml:space="preserve">
      <path
   d="m 263.1,135.8 c 0,-1.3 -0.7,-2.3 -1.8,-2.9 v 0 0 C 225.1,114.8 182.6,95.40001 174.7,95.40001 v 0 c -4,0 -9.6,3.2 -15.6,6.59999 v 0 c -3.1,1.8 -7.8,4.4 -9.1,4.5 v 0 c -1.4,-0.1 -6,-2.8 -9.1,-4.5 v 0 C 135,98.60001 129.4,95.40001 125.3,95.40001 v 0 c -7.8,0 -50.40001,19.39999 -86.6,37.49999 v 0 0 c -1.1,0.5 -1.8,1.6 -1.8,2.9 v 0 c 0,1.2 0.6,2.2 1.5,2.7 v 0 0 c 10.7,6.6 18.5,14.5 25.99999,22 v 0 c 17.80001,17.9 34.5,34.8 85.50001,34.8 v 0 c 51,0 67.8,-16.9 85.5,-34.8 v 0 c 7.5,-7.6 15.3,-15.4 26,-22 v 0 0 c 1,-0.5 1.7,-1.5 1.7,-2.7 v 0 0 0 M 137.7,107.6 c 5.8,3.3 9.5,5.4 12.3,5.4 v 0 c 2.8,0 6.5,-2 12.3,-5.4 v 0 c 4.2,-2.4 10.1,-5.8 12.4,-5.8 v 0 c 3.9,0 31.2,11 73.7,31.9 v 0 c -20.3,1.9 -64.4,5.7 -98.4,5.7 v 0 c -34,0 -78.1,-3.7 -98.4,-5.7 v 0 c 42.5,-20.8 69.8,-31.9 73.7,-31.9 v 0 c 2.4,0.1 8.2,3.4 12.4,5.8 v 0 0 0 M 231,156 c -17.5,17.6 -32.7,32.9 -81,32.9 v 0 c -48.3,0 -63.5,-15.2 -81,-32.9 v 0 C 63.7,150.7 58.3,145.3 51.9,140.1 v 0 c 20.8,1.9 64.4,5.6 98.1,5.6 v 0 c 33.7,0 77.3,-3.7 98.1,-5.6 v 0 c -6.5,5.2 -11.9,10.6 -17.1,15.9 v 0 0 0"
   xml:space="preserve"
   style="fill:#a21e0f"
   id="path10"
   inkscape:connector-curvature="0" />
    </g>
  </g>
  <rect
   x="0.96722281"
   y="33.507027"
   width="247"
   height="56.599998"
   xml:space="preserve"
   style="fill:#f8f9fa;fill-opacity:1"
   id="rect14" />
  <g
   xml:space="preserve"
   id="g68"
   transform="translate(-25.532778,-91.09297)">
    <g
   xml:space="preserve"
   id="g66">
      <path
   d="m 86.1,166.4 v 8.2 h 3.8 l -0.1,1.1 h -5 v -9.4 h 1.3 z"
   xml:space="preserve"
   style="fill:#144955"
   id="path16"
   inkscape:connector-curvature="0" />
      <path
   d="m 96.2,169.5 c 0.6,0.7 0.8,1.6 0.8,2.7 0,0.7 -0.1,1.4 -0.4,2 -0.3,0.6 -0.6,1 -1.1,1.3 -0.5,0.3 -1,0.5 -1.7,0.5 -1,0 -1.8,-0.3 -2.3,-1 -0.6,-0.7 -0.8,-1.6 -0.8,-2.7 0,-0.7 0.1,-1.4 0.4,-2 0.3,-0.6 0.6,-1 1.1,-1.3 0.5,-0.3 1.1,-0.5 1.69999,-0.5 0.90001,0 1.70001,0.3 2.30001,1 z m -4.2,2.7 c 0,1.8 0.6,2.7 1.8,2.7 1.20001,0 1.80001,-0.9 1.80001,-2.7 0,-1.8 -0.6,-2.7 -1.80001,-2.7 -1.2,0 -1.8,0.9 -1.8,2.7 z"
   xml:space="preserve"
   style="fill:#144955"
   id="path18"
   inkscape:connector-curvature="0" />
      <path
   d="m 104.8,169 c -0.3,0.1 -0.6,0.1 -0.9,0.2 -0.3,0 -0.7,0 -1.2,0 0.8,0.4 1.3,1 1.3,1.8 0,0.7 -0.2,1.3 -0.7,1.8 -0.5,0.5 -1.2,0.7 -2,0.7 -0.3,0 -0.6,0 -0.9,-0.1 -0.1,0.1 -0.2,0.2 -0.3,0.3 -0.1,0.1 -0.1,0.2 -0.1,0.4 0,0.4 0.3,0.6 0.9,0.6 h 1.1 c 0.5,0 0.9,0.1 1.3,0.3 0.4,0.2 0.7,0.4 0.9,0.7 0.2,0.3 0.3,0.6 0.3,1 0,0.7 -0.3,1.2 -0.9,1.6 -0.6,0.4 -1.4,0.6 -2.5,0.6 -0.8,0 -1.39999,-0.1 -1.79999,-0.2 -0.4,-0.1 -0.8,-0.4 -1,-0.7 -0.2,-0.3 -0.3,-0.7 -0.3,-1.2 h 1.1 c 0,0.3 0.09999,0.5 0.19999,0.7 0.1,0.2 0.30001,0.3 0.6,0.4 0.3,0.1 0.7,0.1 1.2,0.1 0.8,0 1.3,-0.1 1.6,-0.3 0.3,-0.2 0.5,-0.5 0.5,-0.8 0,-0.3 -0.1,-0.6 -0.4,-0.8 -0.3,-0.2 -0.6,-0.3 -1.1,-0.3 h -1.1 c -0.6,0 -1.1,-0.1 -1.4,-0.4 -0.30001,-0.3 -0.5,-0.6 -0.5,-1 0,-0.2 0.1,-0.5 0.19999,-0.7 0.1,-0.2 0.30001,-0.4 0.6,-0.6 -0.4,-0.2 -0.69999,-0.5 -0.9,-0.8 -0.2,-0.3 -0.3,-0.7 -0.3,-1.2 0,-0.5 0.1,-0.9 0.4,-1.3 0.2,-0.4 0.6,-0.7 1,-0.9 0.40001,-0.2 0.90001,-0.3 1.40001,-0.3 0.6,0 1,0 1.4,-0.1 0.4,0 0.7,-0.1 0.9,-0.2 0.2,-0.1 0.6,-0.2 0.9,-0.4 z m -4.7,0.8 c -0.3,0.3 -0.4,0.7 -0.4,1.2 0,0.5 0.1,0.9 0.4,1.2 0.3,0.3 0.6,0.4 1.1,0.4 0.5,0 0.9,-0.1 1.1,-0.4 0.3,-0.3 0.4,-0.7 0.4,-1.2 0,-1.1 -0.5,-1.6 -1.5,-1.6 -0.5,0 -0.8,0.1 -1.1,0.4 z"
   xml:space="preserve"
   style="fill:#144955"
   id="path20"
   inkscape:connector-curvature="0" />
      <path
   d="m 110.9,169.5 c 0.6,0.7 0.8,1.6 0.8,2.7 0,0.7 -0.1,1.4 -0.4,2 -0.3,0.6 -0.6,1 -1.1,1.3 -0.5,0.3 -1,0.5 -1.7,0.5 -1,0 -1.8,-0.3 -2.3,-1 -0.6,-0.7 -0.8,-1.6 -0.8,-2.7 0,-0.7 0.1,-1.4 0.4,-2 0.3,-0.6 0.6,-1 1.1,-1.3 0.5,-0.3 1.1,-0.5 1.7,-0.5 1,0 1.8,0.3 2.3,1 z m -4.2,2.7 c 0,1.8 0.6,2.7 1.8,2.7 1.2,0 1.8,-0.9 1.8,-2.7 0,-1.8 -0.6,-2.7 -1.8,-2.7 -1.1,0 -1.8,0.9 -1.8,2.7 z"
   xml:space="preserve"
   style="fill:#144955"
   id="path22"
   inkscape:connector-curvature="0" />
      <path
   d="m 119.1,169.5 c 0.4,0.7 0.6,1.6 0.6,2.8 0,1.1 -0.2,2 -0.7,2.7 -0.5,0.7 -1.2,1 -2.1,1 -0.8,0 -1.4,-0.3 -1.9,-0.8 v 3.4 l -1.2,0.1 v -10 h 1.1 l 0.1,1 c 0.3,-0.4 0.6,-0.6 1,-0.8 0.4,-0.2 0.8,-0.3 1.2,-0.3 0.8,-0.1 1.5,0.2 1.9,0.9 z m -0.7,2.7 c 0,-1.8 -0.5,-2.7 -1.6,-2.7 -0.4,0 -0.7,0.1 -1,0.3 -0.3,0.2 -0.5,0.5 -0.8,0.8 v 3.5 c 0.2,0.3 0.4,0.5 0.7,0.6 0.3,0.1 0.6,0.2 0.9,0.2 1.2,0 1.8,-0.9 1.8,-2.7 z"
   xml:space="preserve"
   style="fill:#144955"
   id="path24"
   inkscape:connector-curvature="0" />
      <path
   d="m 126.7,174.8 c 0.1,0.1 0.2,0.2 0.4,0.3 l -0.3,0.9 c -0.4,0 -0.7,-0.1 -0.9,-0.3 -0.2,-0.2 -0.4,-0.4 -0.5,-0.8 -0.5,0.7 -1.2,1.1 -2.1,1.1 -0.7,0 -1.3,-0.2 -1.7,-0.6 -0.4,-0.4 -0.6,-0.9 -0.6,-1.6 0,-0.8 0.3,-1.3 0.8,-1.8 0.5,-0.4 1.3,-0.6 2.3,-0.6 h 1.1 v -0.5 c 0,-0.5 -0.1,-0.9 -0.4,-1.1 -0.3,-0.2 -0.6,-0.3 -1.1,-0.3 -0.5,0 -1.2,0.1 -1.9,0.4 l -0.3,-0.9 c 0.9,-0.3 1.7,-0.5 2.5,-0.5 0.8,0 1.5,0.2 1.9,0.6 0.4,0.4 0.6,1 0.6,1.8 v 3.3 c 0.1,0.2 0.1,0.4 0.2,0.6 z m -3.6,-9.2 c 0.1,0.1 0.2,0.3 0.2,0.5 0,0.2 -0.1,0.4 -0.2,0.5 -0.1,0.1 -0.3,0.2 -0.5,0.2 -0.2,0 -0.4,-0.1 -0.6,-0.2 -0.2,-0.1 -0.2,-0.3 -0.2,-0.5 0,-0.2 0.1,-0.4 0.2,-0.5 0.1,-0.1 0.3,-0.2 0.6,-0.2 0.2,0 0.4,0 0.5,0.2 z m 2.2,8.3 v -1.6 h -0.9 c -1.3,0 -2,0.5 -2,1.5 0,0.4 0.1,0.7 0.3,1 0.2,0.2 0.5,0.3 0.9,0.3 0.8,-0.1 1.3,-0.5 1.7,-1.2 z m 0.7,-8.3 c 0.1,0.1 0.2,0.3 0.2,0.5 0,0.2 -0.1,0.4 -0.2,0.5 -0.1,0.1 -0.3,0.2 -0.6,0.2 -0.2,0 -0.4,-0.1 -0.5,-0.2 -0.1,-0.1 -0.2,-0.3 -0.2,-0.5 0,-0.2 0.1,-0.4 0.2,-0.5 0.1,-0.1 0.3,-0.2 0.5,-0.2 0.2,0 0.4,0 0.6,0.2 z"
   xml:space="preserve"
   style="fill:#144955"
   id="path26"
   inkscape:connector-curvature="0" />
      <path
   d="m 134.7,165.8 v 10 h -1.1 l -0.1,-1 c -0.2,0.4 -0.5,0.6 -0.9,0.8 -0.4,0.2 -0.7,0.3 -1.2,0.3 -0.9,0 -1.5,-0.3 -2,-1 -0.5,-0.7 -0.7,-1.6 -0.7,-2.7 0,-0.7 0.1,-1.4 0.3,-2 0.2,-0.6 0.6,-1 1,-1.3 0.4,-0.3 0.9,-0.5 1.5,-0.5 0.7,0 1.4,0.3 1.9,0.9 v -3.7 z m -2.1,8.9 c 0.3,-0.2 0.5,-0.4 0.8,-0.8 v -3.5 c -0.2,-0.3 -0.5,-0.5 -0.8,-0.7 -0.3,-0.2 -0.6,-0.2 -0.9,-0.2 -0.6,0 -1,0.2 -1.3,0.7 -0.3,0.5 -0.5,1.1 -0.5,2.1 0,0.9 0.1,1.6 0.4,2.1 0.3,0.5 0.7,0.7 1.2,0.7 0.5,-0.1 0.9,-0.2 1.1,-0.4 z"
   xml:space="preserve"
   style="fill:#144955"
   id="path28"
   inkscape:connector-curvature="0" />
      <path
   d="m 138.5,165.5 c 0.2,0.2 0.2,0.4 0.2,0.6 0,0.2 -0.1,0.4 -0.2,0.6 -0.1,0.2 -0.4,0.2 -0.6,0.2 -0.3,0 -0.5,-0.1 -0.6,-0.2 -0.2,-0.2 -0.2,-0.4 -0.2,-0.6 0,-0.2 0.1,-0.4 0.2,-0.6 0.2,-0.2 0.4,-0.2 0.6,-0.2 0.2,-0.1 0.4,0 0.6,0.2 z m 0,3.1 v 7.2 h -1.2 v -7.2 z"
   xml:space="preserve"
   style="fill:#144955"
   id="path30"
   inkscape:connector-curvature="0" />
      <path
   d="m 144.3,168.7 c 0.4,0.1 0.8,0.3 1.1,0.6 l -0.5,0.8 c -0.3,-0.2 -0.6,-0.4 -0.9,-0.5 -0.3,-0.1 -0.6,-0.1 -0.9,-0.1 -0.4,0 -0.7,0.1 -1,0.3 -0.2,0.2 -0.4,0.4 -0.4,0.7 0,0.3 0.1,0.5 0.3,0.7 0.2,0.2 0.6,0.3 1.2,0.5 0.8,0.2 1.4,0.5 1.8,0.8 0.4,0.3 0.6,0.8 0.6,1.4 0,0.7 -0.3,1.2 -0.8,1.6 -0.5,0.4 -1.2,0.6 -2,0.6 -1.1,0 -2,-0.3 -2.7,-0.9 l 0.7,-0.8 c 0.6,0.5 1.3,0.7 2,0.7 0.5,0 0.8,-0.1 1.1,-0.3 0.3,-0.2 0.4,-0.5 0.4,-0.8 0,-0.2 0,-0.4 -0.1,-0.6 -0.1,-0.2 -0.3,-0.3 -0.5,-0.4 -0.2,-0.1 -0.6,-0.2 -1.1,-0.4 -0.8,-0.2 -1.3,-0.5 -1.6,-0.8 -0.3,-0.3 -0.5,-0.8 -0.5,-1.3 0,-0.4 0.1,-0.7 0.3,-1 0.2,-0.3 0.5,-0.5 0.9,-0.7 0.4,-0.2 0.8,-0.3 1.3,-0.3 0.5,0 1,0 1.3,0.2 z"
   xml:space="preserve"
   style="fill:#144955"
   id="path32"
   inkscape:connector-curvature="0" />
      <path
   d="m 151.2,168.7 c 0.4,0.1 0.7,0.3 1,0.6 l -0.6,0.8 c -0.3,-0.2 -0.5,-0.3 -0.7,-0.4 -0.2,-0.1 -0.5,-0.1 -0.8,-0.1 -0.6,0 -1,0.2 -1.4,0.7 -0.3,0.5 -0.5,1.1 -0.5,2 0,0.9 0.2,1.6 0.5,2 0.3,0.4 0.8,0.6 1.4,0.6 0.3,0 0.5,0 0.8,-0.1 0.3,-0.1 0.5,-0.2 0.8,-0.4 l 0.6,0.8 c -0.7,0.5 -1.4,0.8 -2.2,0.8 -1,0 -1.7,-0.3 -2.3,-1 -0.6,-0.7 -0.8,-1.6 -0.8,-2.7 0,-0.8 0.1,-1.4 0.4,-2 0.3,-0.6 0.6,-1 1.1,-1.3 0.5,-0.3 1,-0.5 1.7,-0.5 0.3,0 0.6,0 1,0.2 z"
   xml:space="preserve"
   style="fill:#144955"
   id="path34"
   inkscape:connector-curvature="0" />
      <path
   d="m 158.8,169.1 c 0.4,0.4 0.5,0.9 0.5,1.6 v 5.1 h -1.2 v -5 c 0,-0.5 -0.1,-0.9 -0.3,-1.1 -0.2,-0.2 -0.5,-0.3 -0.8,-0.3 -0.3,0 -0.7,0.1 -1,0.3 -0.3,0.2 -0.6,0.5 -0.8,0.9 v 5.1 H 154 v -10 l 1.2,-0.1 v 4 c 0.6,-0.8 1.3,-1.2 2.1,-1.2 0.6,0.1 1.1,0.3 1.5,0.7 z"
   xml:space="preserve"
   style="fill:#144955"
   id="path36"
   inkscape:connector-curvature="0" />
      <path
   d="m 167.2,172.6 h -4.6 c 0.1,0.8 0.3,1.4 0.6,1.7 0.3,0.4 0.8,0.6 1.3,0.6 0.3,0 0.7,0 0.9,-0.1 0.3,-0.1 0.6,-0.3 0.9,-0.5 l 0.5,0.7 c -0.8,0.6 -1.6,0.9 -2.5,0.9 -1,0 -1.8,-0.3 -2.3,-1 -0.5,-0.7 -0.8,-1.5 -0.8,-2.7 0,-0.7 0.1,-1.4 0.4,-2 0.2,-0.6 0.6,-1 1,-1.3 0.4,-0.3 1,-0.5 1.6,-0.5 1,0 1.7,0.3 2.2,0.9 0.5,0.6 0.8,1.5 0.8,2.6 0.1,0.3 0.1,0.5 0,0.7 z m -1.2,-1 c 0,-0.7 -0.1,-1.2 -0.4,-1.6 -0.3,-0.4 -0.7,-0.6 -1.3,-0.6 -1,0 -1.6,0.8 -1.7,2.3 z"
   xml:space="preserve"
   style="fill:#144955"
   id="path38"
   inkscape:connector-curvature="0" />
      <path
   d="m 178.1,167.2 c 0.6,0.5 1,1.2 1,2.2 0,1 -0.3,1.8 -1,2.3 -0.7,0.5 -1.5,0.7 -2.6,0.7 h -1.2 v 3.4 H 173 v -9.4 h 2.5 c 1,0 1.9,0.3 2.6,0.8 z m -1,3.7 c 0.4,-0.3 0.6,-0.8 0.6,-1.6 0,-0.7 -0.2,-1.2 -0.6,-1.5 -0.4,-0.3 -1,-0.4 -1.7,-0.4 h -1.2 v 3.9 h 1.1 c 0.8,0 1.4,-0.1 1.8,-0.4 z"
   xml:space="preserve"
   style="fill:#144955"
   id="path40"
   inkscape:connector-curvature="0" />
      <path
   d="m 184.3,168.6 -0.2,1.2 c -0.2,-0.1 -0.4,-0.1 -0.6,-0.1 -0.4,0 -0.8,0.2 -1.1,0.5 -0.3,0.3 -0.5,0.8 -0.6,1.5 v 4.1 h -1.2 v -7.2 h 1.1 l 0.1,1.5 c 0.2,-0.5 0.4,-0.9 0.8,-1.2 0.3,-0.3 0.7,-0.4 1.1,-0.4 0.1,0 0.4,0 0.6,0.1 z"
   xml:space="preserve"
   style="fill:#144955"
   id="path42"
   inkscape:connector-curvature="0" />
      <path
   d="m 190.2,174.8 c 0.1,0.1 0.2,0.2 0.4,0.3 l -0.3,0.9 c -0.4,0 -0.7,-0.1 -0.9,-0.3 -0.2,-0.2 -0.4,-0.4 -0.5,-0.8 -0.5,0.7 -1.2,1.1 -2.1,1.1 -0.7,0 -1.3,-0.2 -1.7,-0.6 -0.4,-0.4 -0.6,-0.9 -0.6,-1.6 0,-0.8 0.3,-1.3 0.8,-1.8 0.5,-0.4 1.3,-0.6 2.3,-0.6 h 1.1 v -0.5 c 0,-0.5 -0.1,-0.9 -0.4,-1.1 -0.3,-0.2 -0.6,-0.3 -1.1,-0.3 -0.5,0 -1.2,0.1 -1.9,0.4 L 185,169 c 0.9,-0.3 1.7,-0.5 2.5,-0.5 0.8,0 1.5,0.2 1.9,0.6 0.4,0.4 0.6,1 0.6,1.8 v 3.3 c 0.1,0.2 0.1,0.4 0.2,0.6 z m -1.4,-0.9 v -1.6 h -0.9 c -1.3,0 -2,0.5 -2,1.5 0,0.4 0.1,0.7 0.3,1 0.2,0.2 0.5,0.3 0.9,0.3 0.7,-0.1 1.3,-0.5 1.7,-1.2 z"
   xml:space="preserve"
   style="fill:#144955"
   id="path44"
   inkscape:connector-curvature="0" />
      <path
   d="m 195.4,172 2.5,3.8 h -1.5 l -1.8,-3 -1.8,3 h -1.4 l 2.5,-3.8 -2.2,-3.4 h 1.5 l 1.5,2.6 1.5,-2.6 h 1.4 z"
   xml:space="preserve"
   style="fill:#144955"
   id="path46"
   inkscape:connector-curvature="0" />
      <path
   d="m 200.4,165.5 c 0.2,0.2 0.2,0.4 0.2,0.6 0,0.2 -0.1,0.4 -0.2,0.6 -0.1,0.2 -0.4,0.2 -0.6,0.2 -0.3,0 -0.5,-0.1 -0.6,-0.2 -0.2,-0.2 -0.2,-0.4 -0.2,-0.6 0,-0.2 0.1,-0.4 0.2,-0.6 0.2,-0.2 0.4,-0.2 0.6,-0.2 0.3,-0.1 0.5,0 0.6,0.2 z m 0,3.1 v 7.2 h -1.2 v -7.2 z"
   xml:space="preserve"
   style="fill:#144955"
   id="path48"
   inkscape:connector-curvature="0" />
      <path
   d="m 206.3,168.7 c 0.4,0.1 0.8,0.3 1.1,0.6 l -0.5,0.8 c -0.3,-0.2 -0.6,-0.4 -0.9,-0.5 -0.3,-0.1 -0.6,-0.1 -0.9,-0.1 -0.4,0 -0.7,0.1 -1,0.3 -0.2,0.2 -0.4,0.4 -0.4,0.7 0,0.3 0.1,0.5 0.3,0.7 0.2,0.2 0.6,0.3 1.2,0.5 0.8,0.2 1.4,0.5 1.8,0.8 0.4,0.3 0.6,0.8 0.6,1.4 0,0.7 -0.3,1.2 -0.8,1.6 -0.5,0.4 -1.2,0.6 -2,0.6 -1.1,0 -2,-0.3 -2.7,-0.9 l 0.7,-0.8 c 0.6,0.5 1.3,0.7 2,0.7 0.5,0 0.8,-0.1 1.1,-0.3 0.3,-0.2 0.4,-0.5 0.4,-0.8 0,-0.2 0,-0.4 -0.1,-0.6 -0.1,-0.2 -0.3,-0.3 -0.5,-0.4 -0.2,-0.1 -0.6,-0.2 -1.1,-0.4 -0.8,-0.2 -1.3,-0.5 -1.6,-0.8 -0.3,-0.3 -0.5,-0.8 -0.5,-1.3 0,-0.4 0.1,-0.7 0.3,-1 0.2,-0.3 0.5,-0.5 0.9,-0.7 0.4,-0.2 0.8,-0.3 1.3,-0.3 0.5,0 0.9,0 1.3,0.2 z"
   xml:space="preserve"
   style="fill:#144955"
   id="path50"
   inkscape:connector-curvature="0" />
      <path
   d="m 214.3,166.4 v 9.4 H 213 v -9.4 z m 5.1,0 -3.5,4.3 3.8,5.1 h -1.6 l -3.7,-5 3.6,-4.4 z"
   xml:space="preserve"
   style="fill:#144955"
   id="path52"
   inkscape:connector-curvature="0" />
      <path
   d="m 224.8,168.6 -0.2,1.2 c -0.2,-0.1 -0.4,-0.1 -0.6,-0.1 -0.4,0 -0.8,0.2 -1.1,0.5 -0.3,0.3 -0.5,0.8 -0.6,1.5 v 4.1 H 221 v -7.2 h 1.1 l 0.1,1.5 c 0.2,-0.5 0.4,-0.9 0.8,-1.2 0.3,-0.3 0.7,-0.4 1.1,-0.4 0.2,0 0.4,0 0.7,0.1 z"
   xml:space="preserve"
   style="fill:#144955"
   id="path54"
   inkscape:connector-curvature="0" />
      <path
   d="m 230.7,174.8 c 0.1,0.1 0.2,0.2 0.4,0.3 l -0.3,0.9 c -0.4,0 -0.7,-0.1 -0.9,-0.3 -0.2,-0.2 -0.4,-0.4 -0.5,-0.8 -0.5,0.7 -1.2,1.1 -2.1,1.1 -0.7,0 -1.3,-0.2 -1.7,-0.6 -0.4,-0.4 -0.6,-0.9 -0.6,-1.6 0,-0.8 0.3,-1.3 0.8,-1.8 0.5,-0.4 1.3,-0.6 2.3,-0.6 h 1.1 v -0.5 c 0,-0.5 -0.1,-0.9 -0.4,-1.1 -0.3,-0.2 -0.6,-0.3 -1.1,-0.3 -0.5,0 -1.2,0.1 -1.9,0.4 l -0.3,-0.9 c 0.9,-0.3 1.7,-0.5 2.5,-0.5 0.8,0 1.5,0.2 1.9,0.6 0.4,0.4 0.6,1 0.6,1.8 v 3.3 c 0,0.2 0.1,0.4 0.2,0.6 z m -3.6,-9.2 c 0.1,0.1 0.2,0.3 0.2,0.5 0,0.2 -0.1,0.4 -0.2,0.5 -0.1,0.1 -0.3,0.2 -0.5,0.2 -0.2,0 -0.4,-0.1 -0.6,-0.2 -0.2,-0.1 -0.2,-0.3 -0.2,-0.5 0,-0.2 0.1,-0.4 0.2,-0.5 0.1,-0.1 0.3,-0.2 0.6,-0.2 0.2,0 0.3,0 0.5,0.2 z m 2.2,8.3 v -1.6 h -0.9 c -1.3,0 -2,0.5 -2,1.5 0,0.4 0.1,0.7 0.3,1 0.2,0.2 0.5,0.3 0.9,0.3 0.7,-0.1 1.3,-0.5 1.7,-1.2 z m 0.6,-8.3 c 0.1,0.1 0.2,0.3 0.2,0.5 0,0.2 -0.1,0.4 -0.2,0.5 -0.1,0.1 -0.3,0.2 -0.6,0.2 -0.2,0 -0.4,-0.1 -0.5,-0.2 -0.1,-0.1 -0.2,-0.3 -0.2,-0.5 0,-0.2 0.1,-0.4 0.2,-0.5 0.1,-0.1 0.3,-0.2 0.5,-0.2 0.3,0 0.5,0 0.6,0.2 z"
   xml:space="preserve"
   style="fill:#144955"
   id="path56"
   inkscape:connector-curvature="0" />
      <path
   d="m 238,169.1 c 0.4,0.4 0.5,0.9 0.5,1.6 v 5.1 h -1.2 v -5 c 0,-0.5 -0.1,-0.9 -0.3,-1.1 -0.2,-0.2 -0.5,-0.3 -0.8,-0.3 -0.3,0 -0.7,0.1 -1,0.3 -0.3,0.2 -0.6,0.5 -0.8,0.9 v 5.1 h -1.2 v -10 l 1.2,-0.1 v 4 c 0.6,-0.8 1.3,-1.2 2.1,-1.2 0.6,0.1 1.1,0.3 1.5,0.7 z"
   xml:space="preserve"
   style="fill:#144955"
   id="path58"
   inkscape:connector-curvature="0" />
      <path
   d="m 246,174.8 c 0.1,0.1 0.2,0.2 0.4,0.3 l -0.3,0.9 c -0.4,0 -0.7,-0.1 -0.9,-0.3 -0.2,-0.2 -0.4,-0.4 -0.5,-0.8 -0.5,0.7 -1.2,1.1 -2.1,1.1 -0.7,0 -1.3,-0.2 -1.7,-0.6 -0.4,-0.4 -0.6,-0.9 -0.6,-1.6 0,-0.8 0.3,-1.3 0.8,-1.8 0.5,-0.4 1.3,-0.6 2.3,-0.6 h 1.1 v -0.5 c 0,-0.5 -0.1,-0.9 -0.4,-1.1 -0.3,-0.2 -0.6,-0.3 -1.1,-0.3 -0.5,0 -1.2,0.1 -1.9,0.4 l -0.3,-0.9 c 0.9,-0.3 1.7,-0.5 2.5,-0.5 0.8,0 1.5,0.2 1.9,0.6 0.4,0.4 0.6,1 0.6,1.8 v 3.3 c 0.1,0.2 0.1,0.4 0.2,0.6 z m -1.4,-0.9 v -1.6 h -0.9 c -1.3,0 -2,0.5 -2,1.5 0,0.4 0.1,0.7 0.3,1 0.2,0.2 0.5,0.3 0.9,0.3 0.8,-0.1 1.3,-0.5 1.7,-1.2 z"
   xml:space="preserve"
   style="fill:#144955"
   id="path60"
   inkscape:connector-curvature="0" />
      <path
   d="m 253.3,169.1 c 0.4,0.4 0.5,0.9 0.5,1.6 v 5.1 h -1.2 v -5 c 0,-0.5 -0.1,-0.9 -0.3,-1.1 -0.2,-0.2 -0.5,-0.3 -0.8,-0.3 -0.3,0 -0.7,0.1 -1,0.3 -0.3,0.2 -0.6,0.5 -0.8,0.9 v 5.1 h -1.2 v -10 l 1.2,-0.1 v 4 c 0.6,-0.8 1.3,-1.2 2.1,-1.2 0.7,0.1 1.2,0.3 1.5,0.7 z"
   xml:space="preserve"
   style="fill:#144955"
   id="path62"
   inkscape:connector-curvature="0" />
      <path
   d="m 261.3,169.1 c 0.4,0.4 0.5,0.9 0.5,1.6 v 5.1 h -1.2 v -5 c 0,-0.5 -0.1,-0.9 -0.3,-1.1 -0.2,-0.2 -0.5,-0.3 -0.8,-0.3 -0.4,0 -0.7,0.1 -1,0.3 -0.3,0.2 -0.6,0.5 -0.8,0.9 v 5.1 h -1.2 v -7.2 h 1.1 l 0.1,1.1 c 0.3,-0.4 0.6,-0.7 0.9,-0.9 0.4,-0.2 0.8,-0.3 1.2,-0.3 0.6,0.1 1.1,0.3 1.5,0.7 z"
   xml:space="preserve"
   style="fill:#144955"
   id="path64"
   inkscape:connector-curvature="0" />
    </g>
  </g>
  <g
   xml:space="preserve"
   id="g84"
   transform="translate(-25.532778,-91.09297)">
    <path
   d="m 71.8,130.6 c 1.5,1.7 2.30001,4 2.30001,7 V 160 h -5.5 v -21.6 c 0,-4 -1.5,-6 -4.40001,-6 -1.5,0 -2.79999,0.4 -3.9,1.3 -1.1,0.9 -2.2,2.3 -3.4,4.2 V 160 h -5.5 v -21.6 c 0,-4 -1.5,-6 -4.4,-6 -1.6,0 -2.9,0.5 -4,1.4 -1.1,0.9 -2.2,2.3 -3.4,4.2 v 22 H 34.1 V 128.8 H 39 l 0.5,4.6 c 2.3,-3.5 5.3,-5.3 9,-5.3 1.9,0 3.6,0.5 5,1.5 1.4,1 2.3,2.4 2.9,4.2 1.2,-1.8 2.6,-3.2 4.1,-4.2 1.5,-1 3.2,-1.5 5.2,-1.5 2.5,-0.1 4.6,0.8 6.1,2.5 z"
   xml:space="preserve"
   style="fill:#144955"
   id="path70"
   inkscape:connector-curvature="0" />
    <path
   d="m 108.4,160 h -4.7 l -0.4,-4.9 c -1.2,1.9 -2.5,3.4 -4.1,4.2 -1.5,0.9 -3.4,1.3 -5.59999,1.3 -2.7,0 -4.90001,-0.8 -6.40001,-2.5 -1.5,-1.7 -2.3,-4 -2.3,-7.1 v -22.4 h 5.5 v 21.8 c 0,2.1 0.4,3.6 1.1,4.5 0.7,0.9 2,1.3 3.7,1.3 3,0 5.7,-1.8 7.8,-5.4 v -22.3 h 5.5 V 160 Z"
   xml:space="preserve"
   style="fill:#144955"
   id="path72"
   inkscape:connector-curvature="0" />
    <path
   d="m 141,130.6 c 1.6,1.7 2.4,4 2.4,7 V 160 h -5.5 v -21.6 c 0,-2.2 -0.4,-3.8 -1.2,-4.7 -0.8,-0.9 -2.1,-1.4 -3.7,-1.4 -1.7,0 -3.1,0.5 -4.4,1.4 -1.3,0.9 -2.5,2.3 -3.6,4.1 V 160 h -5.5 v -31.2 h 4.7 l 0.5,4.6 c 1.1,-1.7 2.5,-3 4.1,-3.9 1.6,-0.9 3.4,-1.4 5.4,-1.4 3,-0.1 5.2,0.8 6.8,2.5 z"
   xml:space="preserve"
   style="fill:#144955"
   id="path74"
   inkscape:connector-curvature="0" />
    <path
   d="M 178.6,116.2 V 160 h -4.8 l -0.5,-4.3 c -1,1.6 -2.3,2.8 -3.9,3.7 -1.5,0.9 -3.3,1.3 -5.2,1.3 -3.7,0 -6.6,-1.5 -8.7,-4.4 -2.1,-2.9 -3.1,-6.9 -3.1,-11.8 0,-3.2 0.5,-6 1.5,-8.5 1,-2.5 2.4,-4.4 4.3,-5.8 1.9,-1.4 4,-2.1 6.5,-2.1 3.2,0 6,1.3 8.4,3.9 v -16.4 z m -8.9,39 c 1.2,-0.8 2.3,-1.9 3.4,-3.5 v -15.3 c -1,-1.3 -2.1,-2.4 -3.3,-3.1 -1.2,-0.7 -2.5,-1 -3.9,-1 -2.4,0 -4.3,1 -5.6,3 -1.3,2 -2,5 -2,9 0,4 0.6,7 1.8,9 1.2,2 3,3 5.3,3 1.7,0.1 3.1,-0.3 4.3,-1.1 z"
   xml:space="preserve"
   style="fill:#144955"
   id="path76"
   inkscape:connector-curvature="0" />
    <path
   d="m 211.9,160 -3.1,-10.3 h -15.5 l -3.1,10.3 h -5.7 l 13.1,-40.9 h 7.1 l 13,40.9 z m -17.2,-14.8 h 12.7 l -6.3,-21.3 z"
   xml:space="preserve"
   style="fill:#144955"
   id="path78"
   inkscape:connector-curvature="0" />
    <path
   d="m 240.5,128.4 -1,5.3 c -0.9,-0.2 -1.9,-0.4 -2.7,-0.4 -1.9,0 -3.5,0.7 -4.7,2.1 -1.2,1.4 -2.1,3.6 -2.8,6.6 v 18 h -5.5 v -31.2 h 4.7 l 0.5,6.3 c 0.8,-2.3 2,-4.1 3.4,-5.3 1.4,-1.2 3.1,-1.8 5,-1.8 1.1,0 2.1,0.2 3.1,0.4 z"
   xml:space="preserve"
   style="fill:#144955"
   id="path80"
   inkscape:connector-curvature="0" />
    <path
   d="m 262.5,158.6 c -2.1,1.4 -4.4,2.1 -7,2.1 -2.6,0 -4.7,-0.8 -6.2,-2.3 -1.5,-1.5 -2.2,-3.7 -2.2,-6.6 V 133 h -5.5 v -4.2 h 5.5 v -7.1 l 5.5,-0.7 v 7.7 h 7.4 l -0.6,4.2 h -6.8 v 18.6 c 0,1.6 0.3,2.8 0.9,3.5 0.6,0.7 1.5,1.1 2.9,1.1 1.2,0 2.6,-0.4 4.2,-1.2 z"
   xml:space="preserve"
   style="fill:#144955"
   id="path82"
   inkscape:connector-curvature="0" />
  </g>
</svg>