<!DOCTYPE svg PUBLIC "-//W3C//DTD SVG 1.1//EN" "http://www.w3.org/Graphics/SVG/1.1/DTD/svg11.dtd">
<svg xmlns="http://www.w3.org/2000/svg" xmlns:xlink="http://www.w3.org/1999/xlink" xmlns:xml="http://www.w3.org/XML/1998/namespace" version="1.1" x="0px" y="0px" width="300" height="300" overflow="inherit" viewBox="0, 0, 300, 300" preserveAspectRatio="xMidYMid" font-size="0" id="Layer_1" xml:space="preserve" xml="http://www.w3.org/XML/1998/namespace" enable-background="new 0 0 300 300">
  <rect x="0" y="0" width="300" height="300" id="background_9_" xml:space="preserve" style="fill:#FFFFFF;" />
  <g id="myid_9_" xml:space="preserve">
    <g id="icon_9_" xml:space="preserve">
      <path d="M263.1 135.8 C263.1 134.5 262.4 133.5 261.3 132.9 L261.3 132.9 L261.3 132.9 C225.1 114.8 182.6 95.40001 174.7 95.40001 L174.7 95.40001 C170.7 95.40001 165.1 98.60001 159.1 102 L159.1 102 C156 103.8 151.3 106.4 150 106.5 L150 106.5 C148.6 106.4 144 103.7 140.9 102 L140.9 102 C135 98.60001 129.4 95.40001 125.3 95.40001 L125.3 95.40001 C117.5 95.40001 74.89999 114.8 38.7 132.9 L38.7 132.9 L38.7 132.9 C37.6 133.4 36.9 134.5 36.9 135.8 L36.9 135.8 C36.9 137 37.5 138 38.4 138.5 L38.4 138.5 L38.4 138.5 C49.1 145.1 56.9 153 64.39999 160.5 L64.39999 160.5 C82.2 178.4 98.89999 195.3 149.9 195.3 L149.9 195.3 C200.9 195.3 217.7 178.4 235.4 160.5 L235.4 160.5 C242.9 152.9 250.7 145.1 261.4 138.5 L261.4 138.5 L261.4 138.5 C262.4 138 263.1 137 263.1 135.8 L263.1 135.8 L263.1 135.8 L263.1 135.8 M137.7 107.6 C143.5 110.9 147.2 113 150 113 L150 113 C152.8 113 156.5 111 162.3 107.6 L162.3 107.6 C166.5 105.2 172.4 101.8 174.7 101.8 L174.7 101.8 C178.6 101.8 205.9 112.8 248.4 133.7 L248.4 133.7 C228.1 135.6 184 139.4 150 139.4 L150 139.4 C116 139.4 71.9 135.7 51.6 133.7 L51.6 133.7 C94.1 112.9 121.4 101.8 125.3 101.8 L125.3 101.8 C127.7 101.9 133.5 105.2 137.7 107.6 L137.7 107.6 L137.7 107.6 L137.7 107.6 M231 156 C213.5 173.6 198.3 188.9 150 188.9 L150 188.9 C101.7 188.9 86.5 173.7 69 156 L69 156 C63.7 150.7 58.3 145.3 51.9 140.1 L51.9 140.1 C72.7 142 116.3 145.7 150 145.7 L150 145.7 C183.7 145.7 227.3 142 248.1 140.1 L248.1 140.1 C241.6 145.3 236.2 150.7 231 156 L231 156 L231 156 L231 156" xml:space="preserve" style="fill:#A21E0F;" />
    </g>
  </g>
  <rect x="26.5" y="124.6" width="247" height="56.6" xml:space="preserve" style="fill:#FFFFFF;" />
  <g xml:space="preserve">
    <g xml:space="preserve">
      <path d="M86.1 166.4 L86.1 174.6 L89.9 174.6 L89.8 175.7 L84.8 175.7 L84.8 166.3 L86.1 166.3 z" xml:space="preserve" style="fill:#144955;" />
      <path d="M96.2 169.5 C96.8 170.2 97 171.1 97 172.2 C97 172.9 96.9 173.6 96.6 174.2 C96.3 174.8 96 175.2 95.5 175.5 C95 175.8 94.5 176 93.8 176 C92.8 176 92 175.7 91.5 175 C90.9 174.3 90.7 173.4 90.7 172.3 C90.7 171.6 90.8 170.9 91.1 170.3 C91.4 169.7 91.7 169.3 92.2 169 C92.7 168.7 93.3 168.5 93.89999 168.5 C94.8 168.5 95.6 168.8 96.2 169.5 z M92 172.2 C92 174 92.6 174.9 93.8 174.9 C95.00001 174.9 95.60001 174 95.60001 172.2 C95.60001 170.4 95.00001 169.5 93.8 169.5 C92.6 169.5 92 170.4 92 172.2 z" xml:space="preserve" style="fill:#144955;" />
      <path d="M104.8 169 C104.5 169.1 104.2 169.1 103.9 169.2 C103.6 169.2 103.2 169.2 102.7 169.2 C103.5 169.6 104 170.2 104 171 C104 171.7 103.8 172.3 103.3 172.8 C102.8 173.3 102.1 173.5 101.3 173.5 C101 173.5 100.7 173.5 100.4 173.4 C100.3 173.5 100.2 173.6 100.1 173.7 C100 173.8 100 173.9 100 174.1 C100 174.5 100.3 174.7 100.9 174.7 L102 174.7 C102.5 174.7 102.9 174.8 103.3 175 C103.7 175.2 104 175.4 104.2 175.7 C104.4 176 104.5 176.3 104.5 176.7 C104.5 177.4 104.2 177.9 103.6 178.3 C103 178.7 102.2 178.9 101.1 178.9 C100.3 178.9 99.70001 178.8 99.30001 178.7 C98.90001 178.6 98.50001 178.3 98.30001 178 C98.10001 177.7 98.00001 177.3 98.00001 176.8 L99.10001 176.8 C99.10001 177.1 99.2 177.3 99.3 177.5 C99.4 177.7 99.60001 177.8 99.9 177.9 C100.2 178 100.6 178 101.1 178 C101.9 178 102.4 177.9 102.7 177.7 C103 177.5 103.2 177.2 103.2 176.9 C103.2 176.6 103.1 176.3 102.8 176.1 C102.5 175.9 102.2 175.8 101.7 175.8 L100.6 175.8 C100 175.8 99.5 175.7 99.2 175.4 C98.89999 175.1 98.7 174.8 98.7 174.4 C98.7 174.2 98.8 173.9 98.89999 173.7 C98.99999 173.5 99.2 173.3 99.49999 173.1 C99.09999 172.9 98.8 172.6 98.59999 172.3 C98.39999 172 98.29999 171.6 98.29999 171.1 C98.29999 170.6 98.39999 170.2 98.69999 169.8 C98.89999 169.4 99.29999 169.1 99.69999 168.9 C100.1 168.7 100.6 168.6 101.1 168.6 C101.7 168.6 102.1 168.6 102.5 168.5 C102.9 168.5 103.2 168.4 103.4 168.3 C103.6 168.2 104 168.1 104.3 167.9 L104.8 169 z M100.1 169.8 C99.8 170.1 99.7 170.5 99.7 171 C99.7 171.5 99.8 171.9 100.1 172.2 C100.4 172.5 100.7 172.6 101.2 172.6 C101.7 172.6 102.1 172.5 102.3 172.2 C102.6 171.9 102.7 171.5 102.7 171 C102.7 169.9 102.2 169.4 101.2 169.4 C100.7 169.4 100.4 169.5 100.1 169.8 z" xml:space="preserve" style="fill:#144955;" />
      <path d="M110.9 169.5 C111.5 170.2 111.7 171.1 111.7 172.2 C111.7 172.9 111.6 173.6 111.3 174.2 C111 174.8 110.7 175.2 110.2 175.5 C109.7 175.8 109.2 176 108.5 176 C107.5 176 106.7 175.7 106.2 175 C105.6 174.3 105.4 173.4 105.4 172.3 C105.4 171.6 105.5 170.9 105.8 170.3 C106.1 169.7 106.4 169.3 106.9 169 C107.4 168.7 108 168.5 108.6 168.5 C109.6 168.5 110.4 168.8 110.9 169.5 z M106.7 172.2 C106.7 174 107.3 174.9 108.5 174.9 C109.7 174.9 110.3 174 110.3 172.2 C110.3 170.4 109.7 169.5 108.5 169.5 C107.4 169.5 106.7 170.4 106.7 172.2 z" xml:space="preserve" style="fill:#144955;" />
      <path d="M119.1 169.5 C119.5 170.2 119.7 171.1 119.7 172.3 C119.7 173.4 119.5 174.3 119 175 C118.5 175.7 117.8 176 116.9 176 C116.1 176 115.5 175.7 115 175.2 L115 178.6 L113.8 178.7 L113.8 168.7 L114.9 168.7 L115 169.7 C115.3 169.3 115.6 169.1 116 168.9 C116.4 168.7 116.8 168.6 117.2 168.6 C118 168.5 118.7 168.8 119.1 169.5 z M118.4 172.2 C118.4 170.4 117.9 169.5 116.8 169.5 C116.4 169.5 116.1 169.6 115.8 169.8 C115.5 170 115.3 170.3 115 170.6 L115 174.1 C115.2 174.4 115.4 174.6 115.7 174.7 C116 174.8 116.3 174.9 116.6 174.9 C117.8 174.9 118.4 174 118.4 172.2 z" xml:space="preserve" style="fill:#144955;" />
      <path d="M126.7 174.8 C126.8 174.9 126.9 175 127.1 175.1 L126.8 176 C126.4 176 126.1 175.9 125.9 175.7 C125.7 175.5 125.5 175.3 125.4 174.9 C124.9 175.6 124.2 176 123.3 176 C122.6 176 122 175.8 121.6 175.4 C121.2 175 121 174.5 121 173.8 C121 173 121.3 172.5 121.8 172 C122.3 171.6 123.1 171.4 124.1 171.4 L125.2 171.4 L125.2 170.9 C125.2 170.4 125.1 170 124.8 169.8 C124.5 169.6 124.2 169.5 123.7 169.5 C123.2 169.5 122.5 169.6 121.8 169.9 L121.5 169 C122.4 168.7 123.2 168.5 124 168.5 C124.8 168.5 125.5 168.7 125.9 169.1 C126.3 169.5 126.5 170.1 126.5 170.9 L126.5 174.2 C126.6 174.4 126.6 174.6 126.7 174.8 z M123.1 165.6 C123.2 165.7 123.3 165.9 123.3 166.1 C123.3 166.3 123.2 166.5 123.1 166.6 C123 166.7 122.8 166.8 122.6 166.8 C122.4 166.8 122.2 166.7 122 166.6 C121.8 166.5 121.8 166.3 121.8 166.1 C121.8 165.9 121.9 165.7 122 165.6 C122.1 165.5 122.3 165.4 122.6 165.4 C122.8 165.4 123 165.4 123.1 165.6 z M125.3 173.9 L125.3 172.3 L124.4 172.3 C123.1 172.3 122.4 172.8 122.4 173.8 C122.4 174.2 122.5 174.5 122.7 174.8 C122.9 175 123.2 175.1 123.6 175.1 C124.4 175 124.9 174.6 125.3 173.9 z M126 165.6 C126.1 165.7 126.2 165.9 126.2 166.1 C126.2 166.3 126.1 166.5 126 166.6 C125.9 166.7 125.7 166.8 125.4 166.8 C125.2 166.8 125 166.7 124.9 166.6 C124.8 166.5 124.7 166.3 124.7 166.1 C124.7 165.9 124.8 165.7 124.9 165.6 C125 165.5 125.2 165.4 125.4 165.4 C125.6 165.4 125.8 165.4 126 165.6 z" xml:space="preserve" style="fill:#144955;" />
      <path d="M134.7 165.8 L134.7 175.8 L133.6 175.8 L133.5 174.8 C133.3 175.2 133 175.4 132.6 175.6 C132.2 175.8 131.9 175.9 131.4 175.9 C130.5 175.9 129.9 175.6 129.4 174.9 C128.9 174.2 128.7 173.3 128.7 172.2 C128.7 171.5 128.8 170.8 129 170.2 C129.2 169.6 129.6 169.2 130 168.9 C130.4 168.6 130.9 168.4 131.5 168.4 C132.2 168.4 132.9 168.7 133.4 169.3 L133.4 165.6 L134.7 165.8 z M132.6 174.7 C132.9 174.5 133.1 174.3 133.4 173.9 L133.4 170.4 C133.2 170.1 132.9 169.9 132.6 169.7 C132.3 169.5 132 169.5 131.7 169.5 C131.1 169.5 130.7 169.7 130.4 170.2 C130.1 170.7 129.9 171.3 129.9 172.3 C129.9 173.2 130 173.9 130.3 174.4 C130.6 174.9 131 175.1 131.5 175.1 C132 175 132.4 174.9 132.6 174.7 z" xml:space="preserve" style="fill:#144955;" />
      <path d="M138.5 165.5 C138.7 165.7 138.7 165.9 138.7 166.1 C138.7 166.3 138.6 166.5 138.5 166.7 C138.4 166.9 138.1 166.9 137.9 166.9 C137.6 166.9 137.4 166.8 137.3 166.7 C137.1 166.5 137.1 166.3 137.1 166.1 C137.1 165.9 137.2 165.7 137.3 165.5 C137.5 165.3 137.7 165.3 137.9 165.3 C138.1 165.2 138.3 165.3 138.5 165.5 z M138.5 168.6 L138.5 175.8 L137.3 175.8 L137.3 168.6 L138.5 168.6 z" xml:space="preserve" style="fill:#144955;" />
      <path d="M144.3 168.7 C144.7 168.8 145.1 169 145.4 169.3 L144.9 170.1 C144.6 169.9 144.3 169.7 144 169.6 C143.7 169.5 143.4 169.5 143.1 169.5 C142.7 169.5 142.4 169.6 142.1 169.8 C141.9 170 141.7 170.2 141.7 170.5 C141.7 170.8 141.8 171 142 171.2 C142.2 171.4 142.6 171.5 143.2 171.7 C144 171.9 144.6 172.2 145 172.5 C145.4 172.8 145.6 173.3 145.6 173.9 C145.6 174.6 145.3 175.1 144.8 175.5 C144.3 175.9 143.6 176.1 142.8 176.1 C141.7 176.1 140.8 175.8 140.1 175.2 L140.8 174.4 C141.4 174.9 142.1 175.1 142.8 175.1 C143.3 175.1 143.6 175 143.9 174.8 C144.2 174.6 144.3 174.3 144.3 174 C144.3 173.8 144.3 173.6 144.2 173.4 C144.1 173.2 143.9 173.1 143.7 173 C143.5 172.9 143.1 172.8 142.6 172.6 C141.8 172.4 141.3 172.1 141 171.8 C140.7 171.5 140.5 171 140.5 170.5 C140.5 170.1 140.6 169.8 140.8 169.5 C141 169.2 141.3 169 141.7 168.8 C142.1 168.6 142.5 168.5 143 168.5 C143.5 168.5 144 168.5 144.3 168.7 z" xml:space="preserve" style="fill:#144955;" />
      <path d="M151.2 168.7 C151.6 168.8 151.9 169 152.2 169.3 L151.6 170.1 C151.3 169.9 151.1 169.8 150.9 169.7 C150.7 169.6 150.4 169.6 150.1 169.6 C149.5 169.6 149.1 169.8 148.7 170.3 C148.4 170.8 148.2 171.4 148.2 172.3 C148.2 173.2 148.4 173.9 148.7 174.3 C149 174.7 149.5 174.9 150.1 174.9 C150.4 174.9 150.6 174.9 150.9 174.8 C151.2 174.7 151.4 174.6 151.7 174.4 L152.3 175.2 C151.6 175.7 150.9 176 150.1 176 C149.1 176 148.4 175.7 147.8 175 C147.2 174.3 147 173.4 147 172.3 C147 171.5 147.1 170.9 147.4 170.3 C147.7 169.7 148 169.3 148.5 169 C149 168.7 149.5 168.5 150.2 168.5 C150.5 168.5 150.8 168.5 151.2 168.7 z" xml:space="preserve" style="fill:#144955;" />
      <path d="M158.8 169.1 C159.2 169.5 159.3 170 159.3 170.7 L159.3 175.8 L158.1 175.8 L158.1 170.8 C158.1 170.3 158 169.9 157.8 169.7 C157.6 169.5 157.3 169.4 157 169.4 C156.7 169.4 156.3 169.5 156 169.7 C155.7 169.9 155.4 170.2 155.2 170.6 L155.2 175.7 L154 175.7 L154 165.7 L155.2 165.6 L155.2 169.6 C155.8 168.8 156.5 168.4 157.3 168.4 C157.9 168.5 158.4 168.7 158.8 169.1 z" xml:space="preserve" style="fill:#144955;" />
      <path d="M167.2 172.6 L162.6 172.6 C162.7 173.4 162.9 174 163.2 174.3 C163.5 174.7 164 174.9 164.5 174.9 C164.8 174.9 165.2 174.9 165.4 174.8 C165.7 174.7 166 174.5 166.3 174.3 L166.8 175 C166 175.6 165.2 175.9 164.3 175.9 C163.3 175.9 162.5 175.6 162 174.9 C161.5 174.2 161.2 173.4 161.2 172.2 C161.2 171.5 161.3 170.8 161.6 170.2 C161.8 169.6 162.2 169.2 162.6 168.9 C163 168.6 163.6 168.4 164.2 168.4 C165.2 168.4 165.9 168.7 166.4 169.3 C166.9 169.9 167.2 170.8 167.2 171.9 C167.3 172.2 167.3 172.4 167.2 172.6 z M166 171.6 C166 170.9 165.9 170.4 165.6 170 C165.3 169.6 164.9 169.4 164.3 169.4 C163.3 169.4 162.7 170.2 162.6 171.7 L166 171.6 L166 171.6 z" xml:space="preserve" style="fill:#144955;" />
      <path d="M178.1 167.2 C178.7 167.7 179.1 168.4 179.1 169.4 C179.1 170.4 178.8 171.2 178.1 171.7 C177.4 172.2 176.6 172.4 175.5 172.4 L174.3 172.4 L174.3 175.8 L173 175.8 L173 166.4 L175.5 166.4 C176.5 166.4 177.4 166.7 178.1 167.2 z M177.1 170.9 C177.5 170.6 177.7 170.1 177.7 169.3 C177.7 168.6 177.5 168.1 177.1 167.8 C176.7 167.5 176.1 167.4 175.4 167.4 L174.2 167.4 L174.2 171.3 L175.3 171.3 C176.1 171.3 176.7 171.2 177.1 170.9 z" xml:space="preserve" style="fill:#144955;" />
      <path d="M184.3 168.6 L184.1 169.8 C183.9 169.7 183.7 169.7 183.5 169.7 C183.1 169.7 182.7 169.9 182.4 170.2 C182.1 170.5 181.9 171 181.8 171.7 L181.8 175.8 L180.6 175.8 L180.6 168.6 L181.7 168.6 L181.8 170.1 C182 169.6 182.2 169.2 182.6 168.9 C182.9 168.6 183.3 168.5 183.7 168.5 C183.8 168.5 184.1 168.5 184.3 168.6 z" xml:space="preserve" style="fill:#144955;" />
      <path d="M190.2 174.8 C190.3 174.9 190.4 175 190.6 175.1 L190.3 176 C189.9 176 189.6 175.9 189.4 175.7 C189.2 175.5 189 175.3 188.9 174.9 C188.4 175.6 187.7 176 186.8 176 C186.1 176 185.5 175.8 185.1 175.4 C184.7 175 184.5 174.5 184.5 173.8 C184.5 173 184.8 172.5 185.3 172 C185.8 171.6 186.6 171.4 187.6 171.4 L188.7 171.4 L188.7 170.9 C188.7 170.4 188.6 170 188.3 169.8 C188 169.6 187.7 169.5 187.2 169.5 C186.7 169.5 186 169.6 185.3 169.9 L185 169 C185.9 168.7 186.7 168.5 187.5 168.5 C188.3 168.5 189 168.7 189.4 169.1 C189.8 169.5 190 170.1 190 170.9 L190 174.2 C190.1 174.4 190.1 174.6 190.2 174.8 z M188.8 173.9 L188.8 172.3 L187.9 172.3 C186.6 172.3 185.9 172.8 185.9 173.8 C185.9 174.2 186 174.5 186.2 174.8 C186.4 175 186.7 175.1 187.1 175.1 C187.8 175 188.4 174.6 188.8 173.9 z" xml:space="preserve" style="fill:#144955;" />
      <path d="M195.4 172 L197.9 175.8 L196.4 175.8 L194.6 172.8 L192.8 175.8 L191.4 175.8 L193.9 172 L191.7 168.6 L193.2 168.6 L194.7 171.2 L196.2 168.6 L197.6 168.6 L195.4 172 z" xml:space="preserve" style="fill:#144955;" />
      <path d="M200.4 165.5 C200.6 165.7 200.6 165.9 200.6 166.1 C200.6 166.3 200.5 166.5 200.4 166.7 C200.3 166.9 200 166.9 199.8 166.9 C199.5 166.9 199.3 166.8 199.2 166.7 C199 166.5 199 166.3 199 166.1 C199 165.9 199.1 165.7 199.2 165.5 C199.4 165.3 199.6 165.3 199.8 165.3 C200.1 165.2 200.3 165.3 200.4 165.5 z M200.4 168.6 L200.4 175.8 L199.2 175.8 L199.2 168.6 L200.4 168.6 z" xml:space="preserve" style="fill:#144955;" />
      <path d="M206.3 168.7 C206.7 168.8 207.1 169 207.4 169.3 L206.9 170.1 C206.6 169.9 206.3 169.7 206 169.6 C205.7 169.5 205.4 169.5 205.1 169.5 C204.7 169.5 204.4 169.6 204.1 169.8 C203.9 170 203.7 170.2 203.7 170.5 C203.7 170.8 203.8 171 204 171.2 C204.2 171.4 204.6 171.5 205.2 171.7 C206 171.9 206.6 172.2 207 172.5 C207.4 172.8 207.6 173.3 207.6 173.9 C207.6 174.6 207.3 175.1 206.8 175.5 C206.3 175.9 205.6 176.1 204.8 176.1 C203.7 176.1 202.8 175.8 202.1 175.2 L202.8 174.4 C203.4 174.9 204.1 175.1 204.8 175.1 C205.3 175.1 205.6 175 205.9 174.8 C206.2 174.6 206.3 174.3 206.3 174 C206.3 173.8 206.3 173.6 206.2 173.4 C206.1 173.2 205.9 173.1 205.7 173 C205.5 172.9 205.1 172.8 204.6 172.6 C203.8 172.4 203.3 172.1 203 171.8 C202.7 171.5 202.5 171 202.5 170.5 C202.5 170.1 202.6 169.8 202.8 169.5 C203 169.2 203.3 169 203.7 168.8 C204.1 168.6 204.5 168.5 205 168.5 C205.5 168.5 205.9 168.5 206.3 168.7 z" xml:space="preserve" style="fill:#144955;" />
      <path d="M214.3 166.4 L214.3 175.8 L213 175.8 L213 166.4 L214.3 166.4 z M219.4 166.4 L215.9 170.7 L219.7 175.8 L218.1 175.8 L214.4 170.8 L218 166.4 L219.4 166.4 z" xml:space="preserve" style="fill:#144955;" />
      <path d="M224.8 168.6 L224.6 169.8 C224.4 169.7 224.2 169.7 224 169.7 C223.6 169.7 223.2 169.9 222.9 170.2 C222.6 170.5 222.4 171 222.3 171.7 L222.3 175.8 L221 175.8 L221 168.6 L222.1 168.6 L222.2 170.1 C222.4 169.6 222.6 169.2 223 168.9 C223.3 168.6 223.7 168.5 224.1 168.5 C224.3 168.5 224.5 168.5 224.8 168.6 z" xml:space="preserve" style="fill:#144955;" />
      <path d="M230.7 174.8 C230.8 174.9 230.9 175 231.1 175.1 L230.8 176 C230.4 176 230.1 175.9 229.9 175.7 C229.7 175.5 229.5 175.3 229.4 174.9 C228.9 175.6 228.2 176 227.3 176 C226.6 176 226 175.8 225.6 175.4 C225.2 175 225 174.5 225 173.8 C225 173 225.3 172.5 225.8 172 C226.3 171.6 227.1 171.4 228.1 171.4 L229.2 171.4 L229.2 170.9 C229.2 170.4 229.1 170 228.8 169.8 C228.5 169.6 228.2 169.5 227.7 169.5 C227.2 169.5 226.5 169.6 225.8 169.9 L225.5 169 C226.4 168.7 227.2 168.5 228 168.5 C228.8 168.5 229.5 168.7 229.9 169.1 C230.3 169.5 230.5 170.1 230.5 170.9 L230.5 174.2 C230.5 174.4 230.6 174.6 230.7 174.8 z M227.1 165.6 C227.2 165.7 227.3 165.9 227.3 166.1 C227.3 166.3 227.2 166.5 227.1 166.6 C227 166.7 226.8 166.8 226.6 166.8 C226.4 166.8 226.2 166.7 226 166.6 C225.8 166.5 225.8 166.3 225.8 166.1 C225.8 165.9 225.9 165.7 226 165.6 C226.1 165.5 226.3 165.4 226.6 165.4 C226.8 165.4 226.9 165.4 227.1 165.6 z M229.3 173.9 L229.3 172.3 L228.4 172.3 C227.1 172.3 226.4 172.8 226.4 173.8 C226.4 174.2 226.5 174.5 226.7 174.8 C226.9 175 227.2 175.1 227.6 175.1 C228.3 175 228.9 174.6 229.3 173.9 z M229.9 165.6 C230 165.7 230.1 165.9 230.1 166.1 C230.1 166.3 230 166.5 229.9 166.6 C229.8 166.7 229.6 166.8 229.3 166.8 C229.1 166.8 228.9 166.7 228.8 166.6 C228.7 166.5 228.6 166.3 228.6 166.1 C228.6 165.9 228.7 165.7 228.8 165.6 C228.9 165.5 229.1 165.4 229.3 165.4 C229.6 165.4 229.8 165.4 229.9 165.6 z" xml:space="preserve" style="fill:#144955;" />
      <path d="M238 169.1 C238.4 169.5 238.5 170 238.5 170.7 L238.5 175.8 L237.3 175.8 L237.3 170.8 C237.3 170.3 237.2 169.9 237 169.7 C236.8 169.5 236.5 169.4 236.2 169.4 C235.9 169.4 235.5 169.5 235.2 169.7 C234.9 169.9 234.6 170.2 234.4 170.6 L234.4 175.7 L233.2 175.7 L233.2 165.7 L234.4 165.6 L234.4 169.6 C235 168.8 235.7 168.4 236.5 168.4 C237.1 168.5 237.6 168.7 238 169.1 z" xml:space="preserve" style="fill:#144955;" />
      <path d="M246 174.8 C246.1 174.9 246.2 175 246.4 175.1 L246.1 176 C245.7 176 245.4 175.9 245.2 175.7 C245 175.5 244.8 175.3 244.7 174.9 C244.2 175.6 243.5 176 242.6 176 C241.9 176 241.3 175.8 240.9 175.4 C240.5 175 240.3 174.5 240.3 173.8 C240.3 173 240.6 172.5 241.1 172 C241.6 171.6 242.4 171.4 243.4 171.4 L244.5 171.4 L244.5 170.9 C244.5 170.4 244.4 170 244.1 169.8 C243.8 169.6 243.5 169.5 243 169.5 C242.5 169.5 241.8 169.6 241.1 169.9 L240.8 169 C241.7 168.7 242.5 168.5 243.3 168.5 C244.1 168.5 244.8 168.7 245.2 169.1 C245.6 169.5 245.8 170.1 245.8 170.9 L245.8 174.2 C245.9 174.4 245.9 174.6 246 174.8 z M244.6 173.9 L244.6 172.3 L243.7 172.3 C242.4 172.3 241.7 172.8 241.7 173.8 C241.7 174.2 241.8 174.5 242 174.8 C242.2 175 242.5 175.1 242.9 175.1 C243.7 175 244.2 174.6 244.6 173.9 z" xml:space="preserve" style="fill:#144955;" />
      <path d="M253.3 169.1 C253.7 169.5 253.8 170 253.8 170.7 L253.8 175.8 L252.6 175.8 L252.6 170.8 C252.6 170.3 252.5 169.9 252.3 169.7 C252.1 169.5 251.8 169.4 251.5 169.4 C251.2 169.4 250.8 169.5 250.5 169.7 C250.2 169.9 249.9 170.2 249.7 170.6 L249.7 175.7 L248.5 175.7 L248.5 165.7 L249.7 165.6 L249.7 169.6 C250.3 168.8 251 168.4 251.8 168.4 C252.5 168.5 253 168.7 253.3 169.1 z" xml:space="preserve" style="fill:#144955;" />
      <path d="M261.3 169.1 C261.7 169.5 261.8 170 261.8 170.7 L261.8 175.8 L260.6 175.8 L260.6 170.8 C260.6 170.3 260.5 169.9 260.3 169.7 C260.1 169.5 259.8 169.4 259.5 169.4 C259.1 169.4 258.8 169.5 258.5 169.7 C258.2 169.9 257.9 170.2 257.7 170.6 L257.7 175.7 L256.5 175.7 L256.5 168.5 L257.6 168.5 L257.7 169.6 C258 169.2 258.3 168.9 258.6 168.7 C259 168.5 259.4 168.4 259.8 168.4 C260.4 168.5 260.9 168.7 261.3 169.1 z" xml:space="preserve" style="fill:#144955;" />
    </g>
  </g>
  <g xml:space="preserve">
    <path d="M71.8 130.6 C73.3 132.3 74.10001 134.6 74.10001 137.6 L74.10001 160 L68.60001 160 L68.60001 138.4 C68.60001 134.4 67.10001 132.4 64.2 132.4 C62.7 132.4 61.40001 132.8 60.3 133.7 C59.2 134.6 58.1 136 56.9 137.9 L56.9 160 L51.4 160 L51.4 138.4 C51.4 134.4 49.9 132.4 47 132.4 C45.4 132.4 44.1 132.9 43 133.8 C41.9 134.7 40.8 136.1 39.6 138 L39.6 160 L34.1 160 L34.1 128.8 L39 128.8 L39.5 133.4 C41.8 129.9 44.8 128.1 48.5 128.1 C50.4 128.1 52.1 128.6 53.5 129.6 C54.9 130.6 55.8 132 56.4 133.8 C57.6 132 59 130.6 60.5 129.6 C62 128.6 63.7 128.1 65.7 128.1 C68.2 128 70.3 128.9 71.8 130.6 z" xml:space="preserve" style="fill:#144955;" />
    <path d="M108.4 160 L103.7 160 L103.3 155.1 C102.1 157 100.8 158.5 99.2 159.3 C97.7 160.2 95.8 160.6 93.60001 160.6 C90.90001 160.6 88.7 159.8 87.2 158.1 C85.7 156.4 84.9 154.1 84.9 151 L84.9 128.6 L90.4 128.6 L90.4 150.4 C90.4 152.5 90.8 154 91.5 154.9 C92.2 155.8 93.5 156.2 95.2 156.2 C98.2 156.2 100.9 154.4 103 150.8 L103 128.5 L108.5 128.5 L108.5 160 z" xml:space="preserve" style="fill:#144955;" />
    <path d="M141 130.6 C142.6 132.3 143.4 134.6 143.4 137.6 L143.4 160 L137.9 160 L137.9 138.4 C137.9 136.2 137.5 134.6 136.7 133.7 C135.9 132.8 134.6 132.3 133 132.3 C131.3 132.3 129.9 132.8 128.6 133.7 C127.3 134.6 126.1 136 125 137.8 L125 160 L119.5 160 L119.5 128.8 L124.2 128.8 L124.7 133.4 C125.8 131.7 127.2 130.4 128.8 129.5 C130.4 128.6 132.2 128.1 134.2 128.1 C137.2 128 139.4 128.9 141 130.6 z" xml:space="preserve" style="fill:#144955;" />
    <path d="M178.6 116.2 L178.6 160 L173.8 160 L173.3 155.7 C172.3 157.3 171 158.5 169.4 159.4 C167.9 160.3 166.1 160.7 164.2 160.7 C160.5 160.7 157.6 159.2 155.5 156.3 C153.4 153.4 152.4 149.4 152.4 144.5 C152.4 141.3 152.9 138.5 153.9 136 C154.9 133.5 156.3 131.6 158.2 130.2 C160.1 128.8 162.2 128.1 164.7 128.1 C167.9 128.1 170.7 129.4 173.1 132 L173.1 115.6 L178.6 116.2 z M169.7 155.2 C170.9 154.4 172 153.3 173.1 151.7 L173.1 136.4 C172.1 135.1 171 134 169.8 133.3 C168.6 132.6 167.3 132.3 165.9 132.3 C163.5 132.3 161.6 133.3 160.3 135.3 C159 137.3 158.3 140.3 158.3 144.3 C158.3 148.3 158.9 151.3 160.1 153.3 C161.3 155.3 163.1 156.3 165.4 156.3 C167.1 156.4 168.5 156 169.7 155.2 z" xml:space="preserve" style="fill:#144955;" />
    <path d="M211.9 160 L208.8 149.7 L193.3 149.7 L190.2 160 L184.5 160 L197.6 119.1 L204.7 119.1 L217.7 160 L211.9 160 z M194.7 145.2 L207.4 145.2 L201.1 123.9 L194.7 145.2 z" xml:space="preserve" style="fill:#144955;" />
    <path d="M240.5 128.4 L239.5 133.7 C238.6 133.5 237.6 133.3 236.8 133.3 C234.9 133.3 233.3 134 232.1 135.4 C230.9 136.8 230 139 229.3 142 L229.3 160 L223.8 160 L223.8 128.8 L228.5 128.8 L229 135.1 C229.8 132.8 231 131 232.4 129.8 C233.8 128.6 235.5 128 237.4 128 C238.5 128 239.5 128.2 240.5 128.4 z" xml:space="preserve" style="fill:#144955;" />
    <path d="M262.5 158.6 C260.4 160 258.1 160.7 255.5 160.7 C252.9 160.7 250.8 159.9 249.3 158.4 C247.8 156.9 247.1 154.7 247.1 151.8 L247.1 133 L241.6 133 L241.6 128.8 L247.1 128.8 L247.1 121.7 L252.6 121 L252.6 128.7 L260 128.7 L259.4 132.9 L252.6 132.9 L252.6 151.5 C252.6 153.1 252.9 154.3 253.5 155 C254.1 155.7 255 156.1 256.4 156.1 C257.6 156.1 259 155.7 260.6 154.9 L262.5 158.6 z" xml:space="preserve" style="fill:#144955;" />
  </g>
</svg>